<svg height="512" viewBox="0 0 128 128" width="512" xmlns="http://www.w3.org/2000/svg"><path d="m55.71 18.02h-20.05v-6.02a2.006 2.006 0 0 1 2-2h16.05a2.006 2.006 0 0 1 2 2zm-4-4.02h-12.05v4.02h12.05zm57.66 39.26-7.38 62.96a2.003 2.003 0 0 1 -1.99 1.78h-72a2.003 2.003 0 0 1 -1.99-1.78l-6.98-62.97a1.992 1.992 0 0 1 1.98-2.22h86.37a1.998 1.998 0 0 1 1.99 2.23zm-18.17 11.84a2 2 0 0 0 -4 0v7.97a23.2 23.2 0 0 1 -46.4 0v-7.97a2 2 0 0 0 -4 0v7.97a27.2 27.2 0 0 0 54.4 0zm-12.56-35.83v-.01a18.977 18.977 0 0 0 -2.94-10.59 10.478 10.478 0 0 0 -1.29-1.57 8.435 8.435 0 0 0 -2.4-1.73l-.26-.12a5.361 5.361 0 0 0 -.56-.21q-.315-.105-.63-.18l-.3-.06a.148.148 0 0 0 -.07-.01 2.902 2.902 0 0 0 -.41-.06 5.799 5.799 0 0 0 -.72-.04c-5.03 0-9.03 5.59-9.54 12.99-.24.04-.47.08-.7.14a8.047 8.047 0 0 0 -1.21.36 9.093 9.093 0 0 0 -5.23 11.94 8.229 8.229 0 0 0 -6.01 6.91h24.6a193.252 193.252 0 0 1 9.72-18.02 8.925 8.925 0 0 0 -2.05.26zm-39.83 16.52c-4.65-10.49-9.62-15.6-14.78-15.29l-2.08-15.42a1.998 1.998 0 1 0 -3.96.53l1.95 14.46-6.65-5.59a2.001 2.001 0 1 0 -2.58 3.06l7.19 6.04c-2.23 2.47-3.32 6.59-.14 13.45h21.17a1.975 1.975 0 0 0 -.12-1.24zm16.91-21.16a1.092 1.092 0 0 1 -.01-.18v-2.41h-20.05v2.41a2.051 2.051 0 0 1 -1 1.78 15.429 15.429 0 0 0 -1.63 1.15 13.199 13.199 0 0 0 -1.5 1.39c3.95 2.69 7.57 7.8 10.93 15.39a6.032 6.032 0 0 1 .26.71 12.247 12.247 0 0 1 5.04-6.99c-.03-.39-.05-.79-.05-1.19a13.156 13.156 0 0 1 8.01-12.06zm61.53-8.4a8.711 8.711 0 0 0 -4.91-5.33c-4.05-1.74-8.21-.85-12.32 1.84l7.21 14.32a2.009 2.009 0 0 1 -.89 2.69 2.079 2.079 0 0 1 -.9.21 2.01 2.01 0 0 1 -1.79-1.1l-6.87-13.65a47.134 47.134 0 0 0 -4.61 4.72l7.81 15.51a1.994 1.994 0 0 1 -.88 2.68 1.959 1.959 0 0 1 -.9.22 1.999 1.999 0 0 1 -1.79-1.1l-6.99-13.88c-1.38 1.82-2.74 3.77-4.07 5.82a.411.411 0 0 1 .07.11l7.33 14.53a2.009 2.009 0 0 1 -.89 2.69 2.08 2.08 0 0 1 -.9.21 2.01 2.01 0 0 1 -1.79-1.1l-6.28-12.47c-2.65 4.43-5.16 9.16-7.47 13.88h34.54c6.95-14.49 9.4-24.84 7.29-30.8z"/></svg>