<svg height="471pt" viewBox="-37 0 471 471.7209" width="471pt" xmlns="http://www.w3.org/2000/svg"><path d="m104.007812 221.5c0 55.785156 45.222657 101.007812 101.007813 101.007812s101.007813-45.222656 101.007813-101.007812-45.222657-101.007812-101.007813-101.007812c-55.757813.0625-100.945313 45.25-101.007813 101.007812zm101.007813 6.382812c-16.761719.09375-30.964844-12.320312-33.109375-28.945312-2.144531-16.621094 8.441406-32.238281 24.679688-36.398438v-8.539062c0-3.867188 3.132812-7 7-7 3.867187 0 7 3.132812 7 7v8.113281c15.882812 2.6875 27.476562 16.496094 27.375 32.609375 0 3.820313-3.097657 6.917969-6.917969 6.917969-3.820313 0-6.917969-3.097656-6.917969-6.917969-.011719-10.574218-8.589844-19.136718-19.164062-19.125-10.574219.011719-19.136719 8.59375-19.121094 19.167969.011718 10.570313 8.59375 19.132813 19.167968 19.117187 17.144532.097657 31.382813 13.253907 32.832032 30.339844 1.449218 17.082032-10.371094 32.449219-27.253906 35.433594v8.34375c0 3.867188-3.132813 7-7 7-3.867188 0-7-3.132812-7-7v-8.773438c-14.628907-3.863281-24.851563-17.050781-24.949219-32.179687 0-3.910156 3.171875-7.082031 7.082031-7.082031s7.082031 3.171875 7.082031 7.082031c.023438 9.777344 7.390625 17.976563 17.109375 19.042969.359375-.058594.726563-.085938 1.09375-.089844.527344 0 1.050782.0625 1.566406.179688 10.5-.257813 18.832032-8.921876 18.679688-19.421876-.152344-10.503906-8.734375-18.921874-19.234375-18.875zm0 0"/><path d="m367.121094 370.667969c-.050782.027343-.105469.054687-.164063.082031l-64.980469 30.699219c.699219 3.597656 1.003907 7.257812.90625 10.921875-.101562 3.789062-3.203124 6.808594-6.992187 6.808594-.066406 0-.132813 0-.199219 0l-95.101562-2.617188c-3.867188-.105469-6.914063-3.324219-6.808594-7.191406.105469-3.867188 3.328125-6.914063 7.191406-6.808594l87.417969 2.40625c-2.898437-16.941406-17.34375-29.488281-34.523437-29.988281l-57.851563-1.589844c-11.425781-.328125-22.628906-3.222656-32.78125-8.46875l-5.886719-3.046875c-28.910156-15.0625-63.746094-13.101562-90.78125 5.113281l-2.316406 84.160157 9.941406-5.324219c9.878906-5.3125 21.4375-6.578125 32.234375-3.527344l98.179688 27.558594c18.921875 3.875 38.585937 1.679687 56.1875-6.28125l136.019531-87.984375c-7.761719-7.945313-19.78125-9.941406-29.691406-4.921875zm0 0"/><path d="m.359375 465.765625 3.449219-125.214844 49.445312 1.363281-3.449218 125.214844zm0 0"/><path d="m211.585938 83v-76c0-3.867188-3.132813-7-7-7-3.867188 0-7 3.132812-7 7v76c0 3.867188 3.132812 7 7 7 3.867187 0 7-3.132812 7-7zm0 0"/><path d="m271.585938 83v-36c0-3.867188-3.132813-7-7-7-3.867188 0-7 3.132812-7 7v36c0 3.867188 3.132812 7 7 7 3.867187 0 7-3.132812 7-7zm0 0"/><path d="m151.585938 83v-36c0-3.867188-3.132813-7-7-7-3.867188 0-7 3.132812-7 7v36c0 3.867188 3.132812 7 7 7 3.867187 0 7-3.132812 7-7zm0 0"/></svg>